<mxfile host="app.diagrams.net" modified="2021-11-26T10:30:41.599Z" agent="5.0 (Windows)" etag="QaDR0agvWFCaYejmWCvX" version="15.8.6" type="github">
  <diagram id="zGfcb6GtBZdAzWNPFlLk" name="Page-1">
    <mxGraphModel dx="1695" dy="1609" grid="1" gridSize="10" guides="1" tooltips="1" connect="1" arrows="1" fold="1" page="1" pageScale="1" pageWidth="827" pageHeight="1169" math="0" shadow="0">
      <root>
        <mxCell id="0" />
        <mxCell id="1" parent="0" />
        <mxCell id="g3zUjwzLcI1iN-vnKzVe-21" style="edgeStyle=orthogonalEdgeStyle;rounded=0;orthogonalLoop=1;jettySize=auto;html=1;exitX=1;exitY=0.5;exitDx=0;exitDy=0;entryX=0;entryY=0.5;entryDx=0;entryDy=0;" edge="1" parent="1" source="g3zUjwzLcI1iN-vnKzVe-2" target="g3zUjwzLcI1iN-vnKzVe-11">
          <mxGeometry relative="1" as="geometry" />
        </mxCell>
        <mxCell id="g3zUjwzLcI1iN-vnKzVe-2" value="Home Network" style="image;html=1;image=img/lib/clip_art/networking/Wireless_Router_128x128.png" vertex="1" parent="1">
          <mxGeometry x="200" y="230" width="60" height="60" as="geometry" />
        </mxCell>
        <mxCell id="g3zUjwzLcI1iN-vnKzVe-3" value="&lt;div&gt;ip address 192.168.0.20/24&lt;/div&gt;&lt;div&gt;gateway 192.168.0.1&lt;br&gt;&lt;/div&gt;" style="image;html=1;image=img/lib/clip_art/computers/Laptop_128x128.png" vertex="1" parent="1">
          <mxGeometry x="10" y="340" width="60" height="60" as="geometry" />
        </mxCell>
        <mxCell id="g3zUjwzLcI1iN-vnKzVe-5" value="" style="sketch=0;pointerEvents=1;shadow=0;dashed=0;html=1;strokeColor=none;fillColor=#434445;aspect=fixed;labelPosition=center;verticalLabelPosition=bottom;verticalAlign=top;align=center;outlineConnect=0;shape=mxgraph.vvd.wi_fi;" vertex="1" parent="1">
          <mxGeometry x="60" y="330" width="30" height="30" as="geometry" />
        </mxCell>
        <mxCell id="g3zUjwzLcI1iN-vnKzVe-6" value="" style="sketch=0;pointerEvents=1;shadow=0;dashed=0;html=1;strokeColor=none;fillColor=#434445;aspect=fixed;labelPosition=center;verticalLabelPosition=bottom;verticalAlign=top;align=center;outlineConnect=0;shape=mxgraph.vvd.wi_fi;rotation=-180;" vertex="1" parent="1">
          <mxGeometry x="150" y="280" width="30" height="30" as="geometry" />
        </mxCell>
        <mxCell id="g3zUjwzLcI1iN-vnKzVe-8" value="192.168.0.1" style="text;html=1;resizable=0;autosize=1;align=center;verticalAlign=middle;points=[];fillColor=none;strokeColor=none;rounded=0;" vertex="1" parent="1">
          <mxGeometry x="150" y="310" width="80" height="20" as="geometry" />
        </mxCell>
        <mxCell id="g3zUjwzLcI1iN-vnKzVe-22" style="edgeStyle=orthogonalEdgeStyle;rounded=0;orthogonalLoop=1;jettySize=auto;html=1;exitX=1;exitY=0.25;exitDx=0;exitDy=0;entryX=0;entryY=0.25;entryDx=0;entryDy=0;" edge="1" parent="1" source="g3zUjwzLcI1iN-vnKzVe-11" target="g3zUjwzLcI1iN-vnKzVe-12">
          <mxGeometry relative="1" as="geometry" />
        </mxCell>
        <mxCell id="g3zUjwzLcI1iN-vnKzVe-11" value="&lt;div&gt;MTS Router&lt;/div&gt;&lt;div&gt;100.88.0.1&lt;br&gt;&lt;/div&gt;" style="image;html=1;image=img/lib/clip_art/networking/Router_Icon_128x128.png" vertex="1" parent="1">
          <mxGeometry x="310" y="160" width="70" height="50" as="geometry" />
        </mxCell>
        <mxCell id="g3zUjwzLcI1iN-vnKzVe-23" style="edgeStyle=orthogonalEdgeStyle;rounded=0;orthogonalLoop=1;jettySize=auto;html=1;entryX=0;entryY=0.5;entryDx=0;entryDy=0;" edge="1" parent="1" source="g3zUjwzLcI1iN-vnKzVe-12" target="g3zUjwzLcI1iN-vnKzVe-15">
          <mxGeometry relative="1" as="geometry" />
        </mxCell>
        <mxCell id="g3zUjwzLcI1iN-vnKzVe-12" value="&lt;div&gt;MTS Router&lt;/div&gt;&lt;div&gt;212.188.61.77&lt;br&gt;&lt;/div&gt;" style="image;html=1;image=img/lib/clip_art/networking/Router_Icon_128x128.png" vertex="1" parent="1">
          <mxGeometry x="470" y="160" width="70" height="50" as="geometry" />
        </mxCell>
        <mxCell id="g3zUjwzLcI1iN-vnKzVe-24" style="edgeStyle=orthogonalEdgeStyle;rounded=0;orthogonalLoop=1;jettySize=auto;html=1;exitX=0.5;exitY=0;exitDx=0;exitDy=0;" edge="1" parent="1" source="g3zUjwzLcI1iN-vnKzVe-15" target="g3zUjwzLcI1iN-vnKzVe-17">
          <mxGeometry relative="1" as="geometry" />
        </mxCell>
        <mxCell id="g3zUjwzLcI1iN-vnKzVe-15" value="&lt;div&gt;MTS Router&lt;/div&gt;&lt;div&gt;212.188.61.76&lt;br&gt;&lt;/div&gt;" style="image;html=1;image=img/lib/clip_art/networking/Router_Icon_128x128.png" vertex="1" parent="1">
          <mxGeometry x="630" y="160" width="70" height="50" as="geometry" />
        </mxCell>
        <mxCell id="g3zUjwzLcI1iN-vnKzVe-25" style="edgeStyle=orthogonalEdgeStyle;rounded=0;orthogonalLoop=1;jettySize=auto;html=1;exitX=0.5;exitY=0;exitDx=0;exitDy=0;" edge="1" parent="1" source="g3zUjwzLcI1iN-vnKzVe-17" target="g3zUjwzLcI1iN-vnKzVe-18">
          <mxGeometry relative="1" as="geometry" />
        </mxCell>
        <mxCell id="g3zUjwzLcI1iN-vnKzVe-17" value="&lt;div&gt;MTS Router&lt;/div&gt;&lt;div&gt;195.34.59.161&lt;br&gt;&lt;/div&gt;" style="image;html=1;image=img/lib/clip_art/networking/Router_Icon_128x128.png" vertex="1" parent="1">
          <mxGeometry x="630" y="50" width="70" height="50" as="geometry" />
        </mxCell>
        <mxCell id="g3zUjwzLcI1iN-vnKzVe-26" style="edgeStyle=orthogonalEdgeStyle;rounded=0;orthogonalLoop=1;jettySize=auto;html=1;exitX=1;exitY=0.5;exitDx=0;exitDy=0;entryX=0;entryY=0.5;entryDx=0;entryDy=0;" edge="1" parent="1" source="g3zUjwzLcI1iN-vnKzVe-18" target="g3zUjwzLcI1iN-vnKzVe-19">
          <mxGeometry relative="1" as="geometry" />
        </mxCell>
        <mxCell id="g3zUjwzLcI1iN-vnKzVe-18" value="&lt;div&gt;MTS Router&lt;/div&gt;&lt;div&gt;195.34.50.161&lt;br&gt;&lt;/div&gt;" style="image;html=1;image=img/lib/clip_art/networking/Router_Icon_128x128.png" vertex="1" parent="1">
          <mxGeometry x="630" y="-60" width="70" height="50" as="geometry" />
        </mxCell>
        <mxCell id="g3zUjwzLcI1iN-vnKzVe-27" style="edgeStyle=orthogonalEdgeStyle;rounded=0;orthogonalLoop=1;jettySize=auto;html=1;exitX=1;exitY=0.5;exitDx=0;exitDy=0;entryX=0.55;entryY=0.95;entryDx=0;entryDy=0;entryPerimeter=0;" edge="1" parent="1" source="g3zUjwzLcI1iN-vnKzVe-19" target="g3zUjwzLcI1iN-vnKzVe-20">
          <mxGeometry relative="1" as="geometry" />
        </mxCell>
        <mxCell id="g3zUjwzLcI1iN-vnKzVe-19" value="&lt;div&gt;MTS Router&lt;/div&gt;&lt;div&gt;212.188.29.82&lt;br&gt;&lt;/div&gt;" style="image;html=1;image=img/lib/clip_art/networking/Router_Icon_128x128.png" vertex="1" parent="1">
          <mxGeometry x="780" y="-60" width="70" height="50" as="geometry" />
        </mxCell>
        <mxCell id="g3zUjwzLcI1iN-vnKzVe-29" style="edgeStyle=orthogonalEdgeStyle;rounded=0;orthogonalLoop=1;jettySize=auto;html=1;" edge="1" parent="1" source="g3zUjwzLcI1iN-vnKzVe-20" target="g3zUjwzLcI1iN-vnKzVe-28">
          <mxGeometry relative="1" as="geometry" />
        </mxCell>
        <mxCell id="g3zUjwzLcI1iN-vnKzVe-20" value="&lt;div&gt;Global&lt;/div&gt;&lt;div&gt;Network&lt;br&gt;&lt;/div&gt;" style="ellipse;shape=cloud;whiteSpace=wrap;html=1;" vertex="1" parent="1">
          <mxGeometry x="910" y="-170" width="120" height="80" as="geometry" />
        </mxCell>
        <mxCell id="g3zUjwzLcI1iN-vnKzVe-28" value="Google" style="sketch=0;pointerEvents=1;shadow=0;dashed=0;html=1;strokeColor=none;fillColor=#505050;labelPosition=center;verticalLabelPosition=bottom;verticalAlign=top;outlineConnect=0;align=center;shape=mxgraph.office.servers.cluster_server;" vertex="1" parent="1">
          <mxGeometry x="1080" y="-280" width="49" height="59" as="geometry" />
        </mxCell>
      </root>
    </mxGraphModel>
  </diagram>
</mxfile>
